<?xml version="1.0" encoding="UTF-8"?>
<svg id="Layer_1" data-name="Layer 1" xmlns="http://www.w3.org/2000/svg" viewBox="0 0 960 960">
  <defs>
    <style>
      .cls-1 {
        fill: #0055b8;
      }

      .cls-1, .cls-2 {
        stroke-width: 0px;
      }

      .cls-2 {
        fill: #ff9e18;
      }
    </style>
  </defs>
  <path class="cls-1" d="M251.87,552.32h-36.47v-178l36.47-18.61v196.61Z"/>
  <path class="cls-1" d="M330.9,377.83c0,11.6-9.51,21.3-20.88,21.3s-20.88-9.71-20.88-21.3,9.52-21.29,20.88-21.29,20.88,9.69,20.88,21.29ZM328.26,552.32h-36.48v-141.6h36.48v141.6Z"/>
  <path class="cls-1" d="M487.11,552.32h-36.47v-76.58c0-25.35-8.46-32.91-23.53-32.91s-23.79,7.56-23.79,32.1v77.37h-36.47v-141.56h36.47v9.44c6.35-6.74,17.97-12.4,32.52-12.4,35.42,0,51.27,24.81,51.27,64.73v79.83Z"/>
  <path class="cls-1" d="M644.37,552.32h-43.35l-14-23.44c-5.02-8.36-10.04-17.54-12.69-22.93-2.34,5.39-7.92,14.85-12.68,22.93l-14.01,23.44h-43.35l49.17-76.58-41.77-65h43.35l6.61,11.6c4.76,8.36,10.04,17.54,12.68,22.93,2.65-5.39,7.93-14.57,12.69-22.93l6.61-11.6h43.34l-41.76,65,49.16,76.58Z"/>
  <path class="cls-1" d="M781.55,552.32h-36.48v-9.44c-6.34,6.74-17.97,12.41-32.51,12.41-35.42,0-51.27-24.81-51.27-64.73v-79.84h36.44v76.58c0,25.35,8.46,32.9,23.52,32.9s23.79-7.55,23.79-32.1v-77.37h36.48l.03,141.57Z"/>
  <path class="cls-1" d="M936.7,483.28c0,42.35-19.54,72.01-53.92,72.01-12.16,0-22.73-4.85-29.34-11.06v41.54l-36.47,18.61v-193.65h36.47v8.9c6.88-6.2,16.13-11.86,29.34-11.86,29.6,0,53.92,22.65,53.92,75.51ZM899.7,484.06c0-29.13-9.52-41.27-23.8-41.27-11.36,0-17.19,4.86-22.47,11.87v53.4c5.56,7.81,14.01,12.14,24.59,12.14,14.01.03,21.68-12.37,21.68-36.1v-.03Z"/>
  <path id="path-1" class="cls-2" d="M22.42,469.85l140.29-71.43-33.29,153.86-28.73-73.37-78.26-9.07Z"/>
</svg>