<?xml version="1.0" encoding="UTF-8"?><svg id="Layer_1" xmlns="http://www.w3.org/2000/svg" viewBox="0 0 199.79 47.92"><defs><style>.cls-1{fill:#00263e;fill-rule:evenodd;}</style></defs><path class="cls-1" d="M25.73,15.42c-.4.92-1.02,1.64-1.83,2.16-.72.46-1.52.7-2.38.74-.35,0-.67-.28-.69-.65-.01-.37.27-.68.64-.7.62-.02,1.2-.2,1.72-.53.59-.37,1.03-.9,1.32-1.57.17-.39.14-.83-.08-1.2-.22-.37-.59-.59-1-.61-.89-.05-1.63.22-2.22.81-.94.96-1.32,2.66-1.49,3.39-.14.62-1.71,7.37-2.34,10.1-.1.43-.47.73-.91.73h0c-.44,0-.81-.3-.91-.73l-.23-.99c-.72-3.1-1.98-8.56-2.11-9.11-.17-.73-.55-2.44-1.49-3.39-.58-.59-1.33-.86-2.22-.81-.42.02-.78.25-1,.61-.22.37-.25.81-.08,1.2.29.67.74,1.2,1.32,1.57.52.33,1.09.51,1.72.53.37.01.65.32.64.7-.01.37-.33.66-.69.65-.86-.03-1.66-.28-2.38-.74-.81-.52-1.43-1.25-1.83-2.16-.35-.79-.29-1.71.16-2.45.44-.74,1.21-1.21,2.06-1.26,1.27-.08,2.38.34,3.23,1.2,1.21,1.23,1.66,3.2,1.84,4.04.12.52,1.22,5.29,1.96,8.45.73-3.15,1.84-7.93,1.95-8.44.19-.84.63-2.81,1.85-4.04.85-.86,1.96-1.28,3.23-1.2.85.05,1.61.52,2.06,1.26.45.74.51,1.66.16,2.45M19.8,4.78c-.89,0-1.79.15-2.69.46-.41.14-.85.14-1.26,0-.9-.3-1.8-.46-2.69-.46-5.1,0-9.41,5.18-9.41,11.31,0,6.82,5.14,12.85,12.5,14.65.15.04.31.04.46,0,7.36-1.8,12.5-7.83,12.5-14.65,0-6.13-4.31-11.31-9.41-11.31"/><path class="cls-1" d="M17.02,32.04c-.18.04-.36.07-.54.07s-.36-.02-.54-.07c-7.96-1.95-13.52-8.51-13.52-15.96C2.43,9.22,7.34,3.43,13.16,3.43c1.03,0,2.08.18,3.11.53.14.05.28.05.42,0,1.03-.35,2.08-.53,3.11-.53,5.82,0,10.74,5.79,10.74,12.65,0,7.45-5.56,14.01-13.52,15.96ZM29.76,30.19c0,.37-.3.67-.66.67s-.66-.3-.66-.67v-.94c0-.37.3-.67.66-.67s.66.3.66.67v.94ZM29.76,34.46c0,.37-.3.67-.66.67s-.66-.3-.66-.67v-.94c0-.37.3-.67.66-.67s.66.3.66.67v.94ZM25.55,36.59c0,.37-.3.67-.66.67s-.66-.3-.66-.67v-.94c0-.37.3-.67.66-.67s.66.3.66.67v.94ZM25.55,40.86c0,.37-.3.67-.66.67s-.66-.3-.66-.67v-.94c0-.37.3-.67.66-.67s.66.3.66.67v.94ZM21.35,38.73c0,.37-.3.67-.66.67s-.66-.3-.66-.67v-.94c0-.37.3-.67.66-.67s.66.3.66.67v.94ZM21.35,42.99c0,.37-.3.67-.66.67s-.66-.3-.66-.67v-.94c0-.37.3-.67.66-.67s.66.3.66.67v.94ZM17.15,36.59c0,.37-.3.67-.66.67s-.66-.3-.66-.67v-.94c0-.37.3-.67.66-.67s.66.3.66.67v.94ZM17.15,40.86c0,.37-.3.67-.66.67s-.66-.3-.66-.67v-.94c0-.37.3-.67.66-.67s.66.3.66.67v.94ZM12.94,38.73c0,.37-.3.67-.66.67s-.66-.3-.66-.67v-.94c0-.37.3-.67.66-.67s.66.3.66.67v.94ZM12.94,42.99c0,.37-.3.67-.66.67s-.66-.3-.66-.67v-.94c0-.37.3-.67.66-.67s.66.3.66.67v.94ZM8.74,36.59c0,.37-.3.67-.66.67s-.66-.3-.66-.67v-.94c0-.37.3-.67.66-.67s.66.3.66.67v.94ZM8.74,40.86c0,.37-.3.67-.66.67s-.66-.3-.66-.67v-.94c0-.37.3-.67.66-.67s.66.3.66.67v.94ZM4.53,30.19c0,.37-.3.67-.66.67s-.66-.3-.66-.67v-.94c0-.37.3-.67.66-.67s.66.3.66.67v.94ZM4.53,34.46c0,.37-.3.67-.66.67s-.66-.3-.66-.67v-.94c0-.37.3-.67.66-.67s.66.3.66.67v.94ZM16.48,0C7.38,0,0,7.49,0,16.73v14.46c0,9.24,7.38,16.73,16.48,16.73s16.48-7.49,16.48-16.73v-14.46C32.96,7.49,25.59,0,16.48,0Z"/><path class="cls-1" d="M52,23.23c-3.02-.77-4.26-1.24-4.26-2.96,0-1.24,1.12-2.19,3.08-2.19s3.26.83,4.2,2.07l2.43-2.01c-1.54-2.01-3.61-3.14-6.69-3.14-3.85,0-6.4,2.19-6.4,5.39,0,3.43,2.31,4.91,6.16,5.98,3.38.95,4.74,1.66,4.74,3.38,0,1.6-1.42,2.6-3.91,2.6s-4.56-1.18-5.74-3.14l-2.61,1.83c1.78,2.73,4.62,4.38,8.35,4.38,4.62,0,7.4-2.19,7.4-5.86s-2.6-5.27-6.75-6.34"/><path class="cls-1" d="M72.49,32.23c-3.85,0-6.4-2.9-6.4-6.99s2.55-7.05,6.4-7.05,6.28,2.9,6.28,7.05-2.49,6.99-6.28,6.99ZM78.64,18.79c-1.36-2.43-3.67-3.79-6.87-3.79-5.39,0-9.47,4.38-9.47,10.24s4.09,10.18,9.47,10.18c3.2,0,5.51-1.36,6.87-3.79v3.32h3.61V15.47h-3.61v3.32Z"/><path class="cls-1" d="M110.44,15c-3.14,0-5.33,1.18-6.87,3.61-1.18-2.43-3.26-3.61-5.86-3.61s-4.74,1.13-5.8,3.14v-2.66h-3.61v19.48h3.61v-11.19c0-3.55,1.84-5.51,5.03-5.51,2.78,0,4.15,1.66,4.15,4.74v11.96h3.61v-11.31c0-3.43,1.78-5.39,5.03-5.39,2.72,0,4.14,1.6,4.14,4.68v12.02h3.61v-12.43c0-4.74-2.96-7.52-7.05-7.52"/><path class="cls-1" d="M130.51,23.23c-3.02-.77-4.26-1.24-4.26-2.96,0-1.24,1.13-2.19,3.08-2.19s3.26.83,4.21,2.07l2.43-2.01c-1.54-2.01-3.61-3.14-6.69-3.14-3.85,0-6.39,2.19-6.39,5.39,0,3.43,2.31,4.91,6.16,5.98,3.38.95,4.74,1.66,4.74,3.38,0,1.6-1.42,2.6-3.91,2.6s-4.56-1.18-5.74-3.14l-2.61,1.83c1.78,2.73,4.62,4.38,8.35,4.38,4.62,0,7.4-2.19,7.4-5.86s-2.61-5.27-6.75-6.34"/><path class="cls-1" d="M150.99,32.23c-3.85,0-6.39-2.9-6.39-6.99s2.55-7.05,6.39-7.05,6.28,2.9,6.28,7.05-2.49,6.99-6.28,6.99ZM157.15,18.79c-1.36-2.43-3.67-3.79-6.87-3.79-5.39,0-9.47,4.38-9.47,10.24s4.09,10.18,9.47,10.18c3.2,0,5.51-1.36,6.87-3.79v3.32h3.61V15.47h-3.61v3.32Z"/><path class="cls-1" d="M190.02,32.23c-3.85,0-6.4-2.9-6.4-6.99s2.55-7.05,6.4-7.05,6.28,2.9,6.28,7.05-2.49,6.99-6.28,6.99ZM196.18,15.47v3.32c-1.36-2.43-3.67-3.79-6.87-3.79-5.39,0-9.48,4.38-9.48,10.24s4.09,10.18,9.48,10.18c3.2,0,5.51-1.36,6.87-3.79v3.32h3.61V15.47h-3.61Z"/><path class="cls-1" d="M170.41,19.97v-4.5h-3.61v19.48h3.61v-10.15l8-7.11-2.4-2.7-5.6,4.97Z"/></svg>