<?xml version="1.0" standalone="no"?>
<!DOCTYPE svg PUBLIC "-//W3C//DTD SVG 20010904//EN"
 "http://www.w3.org/TR/2001/REC-SVG-20010904/DTD/svg10.dtd">
<svg version="1.0" xmlns="http://www.w3.org/2000/svg"
 width="740.000000pt" height="740.000000pt" viewBox="0 0 740.000000 740.000000"
 preserveAspectRatio="xMidYMid meet">

<g transform="translate(0.000000,740.000000) scale(0.100000,-0.100000)"
fill="#000000" stroke="none">
<path d="M3525 6633 c-445 -36 -776 -125 -1143 -308 -886 -444 -1482 -1300
-1598 -2296 -22 -196 -15 -587 15 -769 106 -655 398 -1217 867 -1670 462 -445
1017 -710 1684 -801 128 -18 575 -18 700 -1 676 95 1225 358 1693 811 462 448
753 1009 858 1656 27 166 37 557 19 732 -59 585 -271 1103 -639 1563 -93 117
-317 342 -431 434 -203 162 -496 337 -732 435 -390 161 -901 246 -1293 214z
m1020 -1427 c102 -30 256 -110 337 -174 176 -140 295 -341 333 -561 13 -76 15
-195 13 -808 -3 -708 -4 -719 -26 -798 -25 -89 -85 -222 -132 -290 -149 -217
-396 -365 -658 -395 -114 -13 -1310 -13 -1424 0 -219 25 -421 128 -571 289
-102 111 -166 223 -214 377 l-28 89 0 765 c0 763 0 765 23 845 80 286 290 521
562 628 143 56 140 56 965 53 695 -2 765 -3 820 -20z"/>
<path d="M2980 4933 c-258 -45 -469 -262 -510 -523 -8 -53 -10 -272 -8 -755 4
-756 0 -714 74 -856 70 -133 207 -251 352 -301 l67 -23 750 0 750 0 77 31
c145 59 264 164 332 294 74 141 70 98 74 865 2 600 1 700 -13 768 -46 228
-190 392 -421 479 l-59 23 -720 1 c-396 1 -731 0 -745 -3z m1608 -264 c104
-51 134 -190 60 -275 -42 -47 -77 -64 -138 -64 -57 0 -93 15 -132 57 -51 54
-63 135 -29 201 47 92 146 126 239 81z m-686 -234 c190 -49 369 -188 470 -365
42 -74 78 -186 90 -285 29 -228 -66 -478 -240 -636 -350 -316 -885 -247 -1142
147 -90 138 -126 278 -117 453 18 353 274 635 635 701 66 12 228 4 304 -15z"/>
<path d="M3570 4162 c-224 -74 -367 -301 -331 -526 48 -298 347 -482 628 -385
295 101 415 452 245 715 -50 77 -109 128 -201 172 -68 33 -82 36 -180 39 -83
2 -118 -1 -161 -15z"/>
</g>
</svg>
