<?xml version="1.0" standalone="no"?>
<!DOCTYPE svg PUBLIC "-//W3C//DTD SVG 20010904//EN"
 "http://www.w3.org/TR/2001/REC-SVG-20010904/DTD/svg10.dtd">
<svg version="1.0" xmlns="http://www.w3.org/2000/svg"
 width="274.000000pt" height="184.000000pt" viewBox="0 0 274.000000 184.000000"
 preserveAspectRatio="xMidYMid meet">

<g transform="translate(0.000000,184.000000) scale(0.100000,-0.100000)"
fill="#000000" stroke="none">
<path d="M0 920 l0 -920 168 0 168 0 18 78 c10 42 35 113 55 157 36 77 131
205 152 205 6 0 60 -34 120 -75 60 -41 109 -72 109 -70 0 3 -86 105 -191 227
l-191 223 63 6 c35 4 127 7 204 8 l140 1 -68 38 c-135 75 -197 151 -197 243 0
89 68 150 222 197 l88 27 0 107 c0 184 3 186 282 191 161 3 214 8 320 30 156
33 211 34 238 7 18 -18 20 -33 20 -194 l0 -173 48 -18 c63 -24 152 -70 179
-93 37 -32 63 -85 63 -128 0 -57 -22 -125 -56 -169 l-29 -38 138 7 c75 4 137
5 137 1 0 -3 -61 -101 -135 -216 -74 -116 -135 -213 -135 -216 0 -3 16 -23 35
-46 39 -45 61 -99 95 -230 l23 -87 329 0 328 0 0 920 0 920 -1370 0 -1370 0 0
-920z"/>
<path d="M1655 1048 c-90 -35 -228 -68 -315 -74 -98 -7 -255 13 -393 50 -77
20 -88 21 -85 7 5 -25 183 -110 268 -127 120 -25 282 -15 393 23 117 41 197
90 197 120 0 27 0 27 -65 1z"/>
<path d="M1817 724 c-35 -19 -163 -50 -239 -59 -32 -4 -58 -10 -58 -14 0 -20
75 -103 114 -126 83 -49 142 -23 189 82 28 63 44 133 31 133 -5 -1 -22 -8 -37
-16z"/>
<path d="M1050 676 c0 -37 46 -134 79 -167 102 -102 278 -64 335 73 32 77 31
78 -101 78 -106 0 -208 10 -285 26 -21 4 -28 2 -28 -10z"/>
</g>
</svg>
